<svg xmlns="http://www.w3.org/2000/svg" width="256" height="256"><path fill="#1976D2" fill-opacity=".016" fill-rule="evenodd" d="M0 128.004v128.004l128.25-.254 128.25-.254.254-127.75L257.008 0H0zm.485.496c0 70.4.119 99.053.265 63.672s.146-92.98 0-128S.485 58.1.485 128.5"/><path fill="#1976D2" fill-opacity=".322" fill-rule="evenodd" d="M106.437 1.559C85.278 5.116 60.378 16.629 46.26 29.384l-3.94 3.56-2.847-2.972C37.907 28.337 35.862 27 34.929 27 33.134 27 26 34.255 26 36.08c0 .591 1.349 2.423 2.997 4.071l2.997 2.997-3.895 4.676C-5.786 88.502-9.404 151.171 19.533 196.206c2.578 4.012 7.395 10.589 10.705 14.616 4.469 5.436 5.728 7.612 4.89 8.45-1.433 1.433-1.47 6.398-.054 7.274.591.365 2.149-.346 3.463-1.581 2.272-2.135 2.5-2.162 4.676-.564 1.258.924 5.859 4.32 10.225 7.547 10.649 7.871 20.994 13.248 33.599 17.465 41.239 13.795 87.759 5.681 120.547-21.024l5.172-4.213 4.33 4.412c6.436 6.558 6.914 6.148 6.914-5.933 0-9.255.222-10.546 2.109-12.25 3.515-3.174 14.583-20.479 18.263-28.554 4.584-10.06 8.137-21.542 9.7-31.351.701-4.4 1.647-8.428 2.102-8.95 1.056-1.215 1.092-28.832.036-28.18-.435.269-1.362-3.141-2.06-7.578-2.765-17.573-11.332-37.838-22.106-52.292-3.28-4.4-6.726-9.039-7.658-10.309-1.658-2.261-1.592-2.414 3.097-7.173 3.196-3.245 4.586-5.396 4.176-6.464-1.317-3.433-3.753-2.886-8.657 1.944l-4.844 4.771-7.329-6.025C191.748 14.559 171.513 5.2 148.672 1.496c-11.145-1.808-31.286-1.778-42.235.063M30.975 32.525l-3.417 3.526 48.221 48.228L124 132.508 80 176.5c-34.537 34.53-44 44.529-44 46.492 0 2.037 8.381-5.879 45.254-42.746L126.508 135l47.496 47.51 47.496 47.509.296-7.71.295-7.709-43.791-43.8-43.792-43.8 47.969-47.977C220.772 40.722 230.195 30.795 229.2 29.8s-10.922 8.428-49.223 46.723L132 124.492 84.246 76.746C57.982 50.486 36.02 29 35.442 29c-.577 0-2.587 1.586-4.467 3.525m80.252 23.569c.247 16.464.441 18.242 2.023 18.473 1.583.232 1.75-.88 1.75-11.655 0-6.552.338-11.91.75-11.908s2.972 5.411 5.688 12.021c2.715 6.609 5.405 11.861 5.976 11.67.571-.19 3.109-5.372 5.64-11.515s4.904-11.471 5.274-11.841c.369-.37.672 4.831.672 11.558v12.23l3.25-.314 3.25-.313.273-18.25.272-18.25h-6.837l-4.684 11.75c-2.577 6.463-5.037 12.116-5.468 12.563-.43.447-3.06-4.728-5.844-11.5L118.151 38.5l-3.598-.312-3.599-.311zM33 130c0 17.333.074 18 2 18 1.888 0 2.004-.688 2.064-12.25.072-13.861-.383-14.044 6.67 2.675 2.072 4.908 4.266 9.088 4.878 9.287.616.201 3.289-4.962 6-11.589 2.688-6.573 5.042-11.798 5.231-11.611.189.188.414 5.436.5 11.664L60.5 147.5l3.25.313 3.25.314V112h-3.316c-3.299 0-3.339.058-8.184 12-2.678 6.6-5.149 12-5.492 12s-2.803-5.4-5.467-12c-4.835-11.98-4.849-12-8.192-12H33zm161.243-15.75c.811 1.237 3.31 5.25 5.554 8.917l4.08 6.667-5.939 8.511c-3.266 4.681-5.938 8.768-5.938 9.083s.787.565 1.75.556c1.021-.01 3.792-2.924 6.654-7 2.697-3.841 5.172-6.976 5.5-6.967s2.359 2.978 4.513 6.596c4.198 7.051 5.022 7.713 8.965 7.212 2.54-.324 2.526-.364-3.541-10.19l-6.091-9.864 5.125-7.372c2.819-4.055 5.125-7.603 5.125-7.886 0-.282-.835-.513-1.855-.513-1.136 0-3.51 2.36-6.126 6.088l-4.27 6.087-3.849-6.087c-3.56-5.631-4.123-6.088-7.49-6.088-3.545 0-3.601.059-2.167 2.25M.397 128c0 7.975.156 11.238.346 7.25s.189-10.513 0-14.5c-.19-3.987-.346-.725-.346 7.25m127.29 62.805c-2.675 2.792-2.687 2.872-2.687 18V224h6v-18c0-9.9-.141-18-.313-18s-1.522 1.262-3 2.805"/><path fill="#1976D2" fill-opacity=".624" fill-rule="evenodd" d="M109 1.538C88.258 4.817 67.725 13.497 51.097 26.016l-9.404 7.079-3.366-3.263-3.367-3.263-4.23 4.449-4.23 4.449 4.272-3.958 4.272-3.958 48.478 48.471L132 124.492l48.277-48.269C218.819 37.687 228.805 28.205 229.8 29.2s-8.487 10.981-47.023 49.523L134.508 127l44.246 44.254L223 215.508v7.746c0 4.26-.336 7.746-.746 7.746-.411 0-22.239-21.488-48.507-47.75l-47.76-47.75-44.994 45.023C44.161 217.38 36 225.089 36 223.027c0-1.986 9.244-11.764 43.747-46.274l43.747-43.756-48.465-48.248c-26.656-26.537-47.19-46.82-45.632-45.073l2.834 3.175-4.845 6.297C15.464 64.642 6.976 82.949 2.882 102c-3.187 14.832-3.193 37.146-.013 51.934 4.811 22.374 15.783 44.07 30.012 59.349 3.395 3.645 4.176 5.06 3.286 5.95-1.322 1.322-1.606 7.767-.341 7.767.454 0 1.851-1.092 3.105-2.426l2.279-2.426 5.645 4.603c39.281 32.033 92.518 38.119 137.645 15.737 6.05-3 14.995-8.426 19.879-12.058l8.878-6.602 4.769 4.697c4.485 4.418 4.81 4.569 5.456 2.532.378-1.191.555-5.655.393-9.921l-.294-7.756 6.731-8.94c11.979-15.91 20.324-35.47 23.318-54.654.883-5.657 2.003-11.067 2.488-12.022 1.254-2.468 1.145-21.045-.118-20.264-.586.362-1-.687-1-2.534 0-6.197-4.206-23.64-8.108-33.62-4.582-11.724-11.472-23.629-19.23-33.231l-5.432-6.724 4.999-5.241c4.871-5.106 4.953-5.291 3.2-7.228-1.777-1.964-1.863-1.925-7.053 3.201l-5.255 5.189-5.601-5.12C185.915 7.877 145.186-4.184 109 1.538m2 54.962V75h5l.025-11.75.026-11.75 4.873 11.5c2.689 6.346 5.532 11.634 6.345 11.798 1.034.21 2.746-2.914 5.753-10.5 2.355-5.939 4.663-11.225 5.13-11.748.47-.527.848 4.263.848 10.75V75h7V37.879l-3.7.311-3.701.31-4.381 11c-2.409 6.05-4.728 11.362-5.154 11.804-.425.443-2.976-4.614-5.668-11.238L118.5 38.024l-3.75-.012L111 38zm-79 73V148h2.468c2.467 0 2.469-.008 2.75-11.625l.282-11.624 4.906 11.668c3.489 8.3 5.341 11.583 6.416 11.374.873-.169 3.537-5.149 6.308-11.793l4.796-11.5.037 11.75L60 148h7v-37h-3.349c-3.343 0-3.357.02-8.192 12-2.664 6.6-5.121 12-5.459 12s-2.795-5.4-5.459-12l-4.843-12H32zm162.062-14.813a749 749 0 0 0 5.683 9.18c1.859 2.951 3.158 5.943 2.888 6.647s-2.684 4.364-5.364 8.133c-6.896 9.697-6.752 9.353-3.896 9.353 1.949 0 3.571-1.534 7.461-7.055l4.971-7.056 4.348 7.047c4.132 6.698 4.533 7.047 8.097 7.055 2.063.005 3.741-.329 3.731-.741s-2.668-4.989-5.904-10.17l-5.884-9.419 5.403-7.712c2.972-4.241 5.404-7.99 5.404-8.33 0-.341-1.015-.619-2.256-.619-1.643 0-3.34 1.621-6.25 5.97-2.197 3.284-4.337 5.869-4.756 5.746s-2.244-2.697-4.056-5.72c-3.092-5.161-3.557-5.515-7.608-5.809l-4.315-.314zM.37 128c0 5.775.165 8.137.367 5.25s.202-7.612 0-10.5S.37 122.225.37 128m126.826 62.298L124 193.595V224h8v-18.5c0-10.175-.362-18.5-.804-18.5s-2.242 1.484-4 3.298"/><path fill="#1976D2" fill-opacity=".39" fill-rule="evenodd" d="M115.265.972C98.576 2.864 84.449 7.175 69 15.092c-8.767 4.493-27.005 17.143-26.996 18.725.002.376 20.17 20.792 44.818 45.369l44.814 44.687 43.281-43.29 43.281-43.29-6.664-5.653C188.82 12.37 162.529 1.99 133 .634c-5.775-.265-13.756-.113-17.735.338M117 11.625c-23.147 2.942-42.03 10.311-59.232 23.118L50.035 40.5l24.33 24.345 24.33 24.344 5.402-3.045c16.735-9.433 39.583-7.54 53.844 4.46l3.226 2.714L185.55 68.95c28.01-27.992 26.489-24.048 13.115-34.014-13.861-10.328-30.741-17.935-47.557-21.431-7.539-1.568-27.785-2.684-34.108-1.88M29.946 31.75 26.5 35.5l3.75-3.446C33.74 28.846 34.46 28 33.696 28c-.167 0-1.854 1.688-3.75 3.75M36 28.378c0 .207.788.995 1.75 1.75 1.586 1.243 1.621 1.208.378-.378C36.821 28.084 36 27.555 36 28.378m-6.498 11.408c2.094 2.339 2.662 3.663 1.97 4.593-.535.719-3.34 4.415-6.234 8.214C18.407 61.561 8.735 81.094 5.479 92.5c-1.413 4.95-3.305 14.962-4.204 22.25-1.512 12.262-1.512 14.238 0 26.5.899 7.287 2.808 17.3 4.242 22.25 4.887 16.87 15.866 36.778 27.19 49.3l4.793 5.301 42.75-42.805L123 132.492 74.78 84.496c-26.521-26.398-46.896-46.517-45.278-44.71M110 56.509v19.618l3.25-.314 3.25-.313.5-9 .5-9 1.856 4.811c1.021 2.646 2.042 4.624 2.27 4.396s-.928-3.518-2.57-7.311l-2.984-6.896-.036 11.25L116 75h-5V38h7.636l3.316 8.032c1.824 4.418 3.49 7.859 3.703 7.646s-1.127-3.94-2.977-8.282l-3.364-7.896-4.657-.305L110 36.89zm26.548-16.259c-5.166 12.434-8.476 21.155-8.154 21.477.208.208 2.533-5.045 5.167-11.674L138.35 38H146v37h-8l-.111-8.25c-.061-4.538-.055-9.375.013-10.75.079-1.589-.791-.344-2.388 3.418-1.382 3.254-2.329 6.1-2.105 6.324s1.011-1.277 1.749-3.335l1.342-3.743.5 8.418.5 8.418 4.75.305 4.75.305V37h-4.551c-4.191 0-4.658.257-5.901 3.25m41.736 43.998L135.071 127.5l43.527 43.388 43.526 43.388 2.943-3.388c5.564-6.405 13.924-19.602 18.363-28.988 5.968-12.618 9.33-24.716 11.295-40.65 1.512-12.262 1.512-14.238 0-26.5-1.965-15.934-5.327-28.032-11.295-40.65-4.539-9.598-12.827-22.625-18.673-29.352l-3.261-3.753zm11.828-10.86-24.373 24.388 3.553 5.862c3.293 5.434 5.248 10.817 7.575 20.862.672 2.902.959 3.314 1.045 1.5.095-1.996.314-2.197 1.088-1 .772 1.195.987.991 1.055-1 .079-2.295.156-2.336.945-.5.711 1.654.885 1.395 1.006-1.5l.146-3.5 1.438 3.5c.791 1.925 1.249 2.488 1.018 1.251-.501-2.681 1.038-4.051 1.7-1.513.281 1.075.505.667.576-1.047.066-1.596.548-2.542 1.116-2.191.55.34 1.032-.196 1.07-1.191.063-1.615.163-1.594.93.191.797 1.854.876 1.817 1.085-.5.124-1.375.132-3.556.018-4.846-.199-2.24.039-2.33 5.346-2 4.401.274 5.568.035 5.623-1.154q.07-1.498.928.5l.859 2 .086-2c.071-1.664.249-1.748 1.055-.5.749 1.159.989.817 1.055-1.5.075-2.644.197-2.763 1.023-1 .763 1.627.875 1.395.603-1.25-.392-3.808.028-4.134 1.288-1 .903 2.246.904 2.245 1.038-.25.125-2.334.197-2.367 1.082-.5.751 1.582.846 1.321.455-1.25-.573-3.771.105-4.232 1.472-1 .743 1.758.837 1.375.43-1.75l-.522-4 1.544 3 1.543 3-.521-3c-.493-2.838-.439-2.895.995-1.059 1.5 1.922 1.516 1.922 1.585 0 .069-1.884.098-1.883 1.019.059.734 1.547.836 1.206.448-1.5-.479-3.341-.429-3.409 1.084-1.5 1.542 1.944 1.565 1.93.845-.5a465 465 0 0 1-1.165-4c-.233-.825.526.075 1.687 2 2.029 3.364 2.089 3.39 1.522.666-.382-1.835-.224-2.607.45-2.191 1.339.828 1.332-1.002-.015-3.791-1.019-2.11-1.002-2.118.5-.243.855 1.068 1.555 2.38 1.555 2.917s.23.746.511.465-.149-2.381-.956-4.667c-1.693-4.798-1.31-5.352.971-1.406 1.37 2.371 1.525 2.44 1.125.5-.616-2.989-.054-2.838 1.869.5l1.584 2.75-.56-3-.56-3 1.472 2.5c1.889 3.205 1.916 2.306.088-2.874-1.679-4.759-1.286-5.341.927-1.376l1.535 2.75-.618-3c-.931-4.521-6.892-15.115-13.083-23.25-3.034-3.987-5.585-7.25-5.669-7.25s-11.119 10.975-24.524 24.388M34.394 58.25c-6.547 8.892-9.664 14.504-8.817 15.875.422.683.305.92-.276.561-.999-.617-3.788 4.16-2.93 5.019.246.245.743-.488 1.105-1.63S24.603 76 25.174 76c.572 0 .752.752.399 1.67-.866 2.258 1.218 3.36 4.207 2.224 2.28-.867 2.402-.754 1.793 1.672-.451 1.796-.306 2.387.468 1.908.736-.454 1.008.12.79 1.667-.25 1.781.118 2.322 1.503 2.206 1.454-.121 1.71.34 1.238 2.223-.465 1.852-.261 2.248.927 1.792 1.094-.42 1.349-.131.905 1.027-.551 1.438-.036 1.781 2.307 1.537.391-.041 1.034.747 1.43 1.75.66 1.675.724 1.681.789.074.038-.963.478-1.75.976-1.75.499 0 .653.97.343 2.156-.411 1.57-.22 1.944.701 1.375.943-.583 1.082-.206.546 1.482-.641 2.02-.441 2.21 1.876 1.767 2.355-.451 2.543-.255 2.031 2.112-.44 2.029-.328 2.275.501 1.108.887-1.248 1.068-1.132 1.081.693.011 1.65.509 2.097 2.015 1.807 1.341-.258 2 .153 2 1.249 0 1.373.236 1.324 1.482-.308 1.389-1.818 1.446-1.742.9 1.188-.321 1.721-.13 3.409.424 3.751.594.367.805-.152.514-1.266-.446-1.702-.018-1.842 4.343-1.422 7.298.703 7.325.727 7.455 6.527.101 4.503.231 4.839.882 2.281l.763-3 .198 3c.108 1.65.415 2.463.683 1.806.544-1.339 3.356-.619 3.356.86 0 .524-.45.674-1 .334s-1-.19-1 .334c0 1.479 2.812 2.199 3.356.86.268-.657.522-.407.565.556.12 2.654 2.079 2.094 2.079-.593 0-3.247 3.372-12.733 6.7-18.847l2.778-5.105-23.905-23.353C51.424 62.509 40.291 52 39.831 52c-.459 0-2.906 2.813-5.437 6.25m91.637-2.75c0 .55.436 1.675.969 2.5s.969 1.05.969.5-.436-1.675-.969-2.5-.969-1.05-.969-.5m5.593 13.039c-.965 2.514-.681 3.163.498 1.136.584-1.004.851-2.036.593-2.293-.257-.258-.749.263-1.091 1.157m-9.528-.411c-.316 2.063 3.166 7.872 4.717 7.872 1.99 0 4.203-1.837 4.157-3.45-.017-.578-.489-.263-1.05.7-1.688 2.897-4.288 2.039-6.074-2.005-.91-2.06-1.697-3.462-1.75-3.117M32 129.443V148h2.467c2.46 0 2.468-.033 2.75-11.25l.283-11.25 4.56 11c6.242 15.056 7.133 15.089 12.988.48l4.452-11.106.283 11.063.283 11.063H68v-37.115l-4.212.308-4.211.307-4.464 11.25c-2.455 6.188-4.746 11.25-5.091 11.25-.346 0-2.696-5.062-5.222-11.25l-4.593-11.25-4.103-.307-4.104-.308zm160-17.955c0 .269 2.493 4.501 5.541 9.404l5.541 8.915-6.041 8.635c-3.323 4.748-6.041 8.989-6.041 9.423s1.238.605 2.75.38c2.046-.304 3.874-2.044 7.143-6.797 2.417-3.514 4.753-6.167 5.192-5.896.439.272 2.432 3.183 4.429 6.471 3.552 5.847 3.727 5.977 8.03 5.977h4.4l-5.972-9.886c-3.285-5.437-5.972-10.176-5.972-10.532s2.512-4.232 5.583-8.614l5.583-7.968h-3.024c-1.663 0-3.307.457-3.652 1.016s-1.117.715-1.714.346c-.645-.399-.798-.206-.377.475.39.63-.719 3.221-2.464 5.757l-3.172 4.611-3.6-6.102c-3.515-5.96-3.7-6.103-7.881-6.103-2.355 0-4.282.22-4.282.488m.031 4.012c0 .55.436 1.675.969 2.5s.969 1.05.969.5-.436-1.675-.969-2.5-.969-1.05-.969-.5M83.657 178.843l-42.835 42.843 6.339 4.988c17.805 14.01 34.685 21.961 56.105 26.43 14.256 2.974 35.212 2.974 49.468 0 21.826-4.554 35.206-10.965 58.449-28.009 1.731-1.269 2.32-1.031 6.116 2.478 2.311 2.136-17.172-17.594-43.295-43.845S126.504 136 126.5 136c-.005 0-19.284 19.279-42.843 42.843m2.68-22.553c.396 1.123.171 1.731-.603 1.632-3.546-.456-3.991.037-2.326 2.578 2.174 3.318 1.105 3.182-1.96-.25-1.496-1.674-2.218-2.065-1.846-1 .366 1.046.12 1.75-.61 1.75-.83 0-.654.882.548 2.75l1.77 2.75-2.325-2c-2.263-1.948-2.306-1.949-1.612-.056.7 1.908.675 1.909-1.373.056s-2.073-1.852-1.373.056c.693 1.893.651 1.892-1.603-.056l-2.315-2 1.145 2.184c1.638 3.124 1.414 4.027-.436 1.757-1.268-1.556-1.477-1.607-1.056-.256.289.927-.012 1.867-.668 2.088-.875.294-.801.913.276 2.314.893 1.162.339.932-1.412-.587-2.94-2.552-2.776-1.812.776 3.5l2.007 3-3.234-2.998c-2.543-2.357-3.078-2.571-2.501-1 .727 1.982.716 1.983-1.479.054-2.192-1.925-2.206-1.925-1.483 0 .672 1.789.577 1.824-1.19.444-1.887-1.474-1.888-1.45-.062 1.405 1.602 2.505 1.634 2.819.232 2.281-1.935-.743-2.11.356-.374 2.349.688.789-.049.317-1.636-1.05l-2.885-2.485 1.281 2.5 1.281 2.5-2.356-2-2.357-2 1.711 2.715c2.323 3.686 2.15 4.477-.478 2.19-2.186-1.902-2.186-1.901.068 1.345 1.241 1.787 1.995 3.25 1.675 3.25s-1.969-1.463-3.665-3.25l-3.082-3.25 2.156 3.237 2.155 3.238-3.022-.352c-2.792-.325-2.938-.191-1.923 1.763.986 1.897.808 1.857-1.731-.386-2.52-2.227-2.411-1.899.991 3l3.819 5.5-3.876-3.497c-2.132-1.924-3.313-2.846-2.626-2.05 2.034 2.355 1.424 3.515-.793 1.508-1.988-1.799-2.024-1.799-1.33.009.494 1.288.354 1.636-.457 1.135-.644-.398-1.17-.273-1.17.277s.45 1.278 1 1.618 1 .072 1-.596c0-.752.763-.523 2.006.602 2.285 2.068 1.847 3.446-.482 1.514-2.061-1.711-1.933-.17.201 2.401.948 1.144-.268.279-2.703-1.921s-3.803-3.178-3.039-2.174c1.125 1.48 1.143 1.978.096 2.625-.825.51-.923 1.027-.271 1.43.562.347 1.189.129 1.393-.484.235-.705.862-.526 1.703.488 1.181 1.422.975 1.562-1.818 1.237l-3.149-.367 1.676 2.623 1.675 2.622-2.864-2.5c-1.575-1.375-2.353-1.825-1.729-1s1.229 1.95 1.343 2.5c.469 2.25 4.791 6.724 5.858 6.064.625-.386.832-1.234.46-1.883-.372-.65-.308-.847.142-.44 1.052.954 3.661-1.174 2.917-2.379-.31-.501.032-.788.761-.637.733.152 1.175-.395.991-1.225-.184-.825.02-1.146.453-.714.432.433 8.551-6.968 18.041-16.447 14.591-14.573 17.069-17.474 16.047-18.787-1.033-1.327-.979-1.373.372-.32 1.316 1.025 2.059.732 4.431-1.744l2.85-2.975-2.415-2.756c-4.183-4.774-4.272-4.847-3.609-2.967m81.272.534c-.74 1.197 13.837 15.382 14.855 14.456.471-.429.584-.3.251.286s7.079 8.686 16.471 18 16.784 16.403 16.429 15.753-.211-1.451.322-1.78c.533-.33 1.941-2.048 3.128-3.819 1.779-2.653 1.53-2.516-1.416.78-3.902 4.368-4.991 3.53-1.449-1.115l2.2-2.885-2.2 1.905c-2.777 2.404-2.812 1.317-.088-2.751 1.666-2.489 1.358-2.31-1.463.846-4.041 4.522-4.861 4.006-1.297-.817 2.764-3.739 3.919-5.683 3.377-5.683-.215 0-1.864 2.052-3.665 4.561-1.802 2.508-3.516 4.321-3.809 4.027s.573-2.008 1.926-3.811c4.161-5.542 4.238-6.474.185-2.226-2.126 2.228-3.528 3.6-3.116 3.05 1.282-1.711.828-2.567-1-1.882-1.55.58-1.588.457-.338-1.079.95-1.167 1.635-1.373 2.096-.628.424.687 1.37.041 2.493-1.702l1.809-2.81-2.155 1.905c-2.592 2.291-2.759 1.49-.458-2.19 2.141-3.424 1.453-2.838-3.089 2.63-4.434 5.339-4.656 4.589-.492-1.665l3.116-4.68-4.184 4.5c-4.216 4.536-4.444 4.027-.673-1.5 1.872-2.743 1.884-2.872.149-1.5-1.75 1.383-1.84 1.344-1.147-.498.587-1.563.045-1.345-2.484 1l-3.234 2.998 2.007-3c3.673-5.492 3.671-6.038-.009-2-2.004 2.2-3.372 3.207-3.039 2.239.479-1.395.217-1.616-1.257-1.063-1.659.623-1.708.511-.449-1.036.95-1.167 1.635-1.373 2.096-.628.424.687 1.37.041 2.493-1.702l1.809-2.81-2.155 1.905c-2.566 2.268-2.749 1.522-.538-2.19 1.321-2.218 1.028-2.075-1.604.785l-3.221 3.5 2.179-3.935c1.505-2.716 1.692-3.53.604-2.628-1.262 1.048-1.575 1.054-1.575.03q-.001-1.274-2.043.572c-1.791 1.62-1.963 1.64-1.393.155.377-.983.17-1.694-.492-1.694-.84 0-.825-.596.057-2.25 1.087-2.04 1.043-2.122-.465-.878-1.929 1.592-2.112.895-.575-2.188.735-1.475.26-1.21-1.464.816-1.404 1.65-2.569 3.338-2.589 3.75s-.576.75-1.236.75c-.933 0-.933-.267 0-1.2 1.82-1.82 1.435-3.24-.455-1.672-1.486 1.233-1.478 1.032.083-1.988.955-1.848 1.25-3.059.655-2.691-.596.368-1.083.114-1.083-.564 0-.693-1.206-.177-2.75 1.176-1.512 1.325-2.187 1.763-1.5.974 1.494-1.715 1.661-3.407.25-2.535-1.284.793-1.267-.077.053-2.816.73-1.514.271-1.264-1.495.816-2.863 3.37-3.475 2.277-.856-1.527 1.603-2.329 1.603-2.393 0-1.101-1.966 1.586-2.156.908-.613-2.188.735-1.475.26-1.21-1.464.816-2.695 3.166-3.339 2.829-1.558-.816.911-1.865.769-1.819-.978.316-2.252 2.754-2.729 2.089-.943-1.316 1.143-2.18 1.141-2.181-1.044-.24-1.866 1.658-2.092 1.693-1.534.239.51-1.33.263-1.555-1.121-1.024-1.216.466-1.547.312-1.052-.489.398-.644.498-1.17.223-1.17s-.729.371-1.009.824M84 159.378c0 .207.787.995 1.75 1.75 1.586 1.243 1.621 1.208.378-.378-1.307-1.666-2.128-2.195-2.128-1.372M80 162c0 .55.477 1 1.059 1s.781-.45.441-1-.816-1-1.059-1-.441.45-.441 1m102.667 1.667c-.367.366-.667 1.131-.667 1.7 0 .626.466.567 1.183-.15.651-.651.951-1.416.667-1.7s-.817-.217-1.183.15m-109.604 26.77-24.354 24.369 3.788 3.347c9.274 8.193 25.964 17.593 38.503 21.685 35.361 11.537 75.074 5.733 104.433-15.262 11.338-8.108 12.627-5.024-12.804-30.621-12.271-12.35-23.21-23.247-24.309-24.215-1.923-1.693-2.227-1.644-7.91 1.274-9.019 4.631-20.078 6.551-29.397 5.104-7.173-1.114-18.727-5.644-22.039-8.641-1.374-1.244-4.42 1.455-25.911 22.96m114.917-21.913c-.696.838-1.012 1.777-.704 2.086s1.064-.377 1.678-1.524c1.31-2.448.824-2.728-.974-.562m5.479 4.543c-.363.586-.445 1.281-.183 1.543s.743-.218 1.069-1.067c.676-1.762.1-2.072-.886-.476M58 173.882c0 .55.45 1.278 1 1.618s1 .168 1-.382-.45-1.278-1-1.618-1-.168-1 .382m129.964 1.282c-1.145 2.233-1.118 2.26.61.61.994-.95 1.533-2.001 1.197-2.336s-1.148.442-1.807 1.726m5.547 4.459c-.945 1.443-1.224 2.318-.62 1.944 1.154-.713 3.483-4.567 2.759-4.567-.231 0-1.193 1.18-2.139 2.623M50.5 184c.34.55.816 1 1.059 1s.441-.45.441-1-.477-1-1.059-1-.781.45-.441 1m76.682 5.315-4.235 4.314.277 15.936.276 15.935h9l.271-20.25c.149-11.137-.095-20.25-.542-20.25s-2.718 1.942-5.047 4.315m.521.477L124 193.584V225h8v-19.5c0-10.725-.134-19.5-.297-19.5s-1.963 1.706-4 3.792M57 189.378c0 .207.788.995 1.75 1.75 1.586 1.243 1.621 1.208.378-.378-1.307-1.666-2.128-2.195-2.128-1.372m-3 4c0 .207.788.995 1.75 1.75 1.586 1.243 1.621 1.208.378-.378-1.307-1.666-2.128-2.195-2.128-1.372m-5 5c0 .207.788.995 1.75 1.75 1.586 1.243 1.621 1.208.378-.378-1.307-1.666-2.128-2.195-2.128-1.372m-5 5c0 .207.788.995 1.75 1.75 1.586 1.243 1.621 1.208.378-.378-1.307-1.666-2.128-2.195-2.128-1.372"/></svg>