<svg xmlns="http://www.w3.org/2000/svg" width="256" height="256"><path fill="#1976D2" fill-opacity=".016" fill-rule="evenodd" d="M0 128.004v128.004l128.25-.254 128.25-.254.254-127.75L257.008 0H0zm.485.496c0 70.4.119 99.053.265 63.672s.146-92.98 0-128S.485 58.1.485 128.5"/><path fill="#1976D2" fill-opacity=".175" fill-rule="evenodd" d="M109 2.559c-4.675.709-9.85 1.736-11.5 2.283s-4.56 1.313-6.467 1.703-4.157 1.036-5 1.435S82.925 9.372 81 10.187c-7.478 3.164-19 9.23-19 10.002 0 .446-.492.811-1.092.811s-2.124.788-3.385 1.75a95 95 0 0 1-4.58 3.25c-1.259.825-3.93 2.941-5.936 4.703l-3.646 3.204-2.65-2.651c-1.458-1.457-2.853-2.447-3.101-2.199-.249.248 21.104 22.049 47.45 48.447l47.902 47.996 47.71-47.784c26.777-26.817 48.263-47.571 48.968-47.3.777.298 1.046-.072.702-.967-.907-2.364-2.403-1.702-6.893 3.051-2.338 2.475-4.564 4.5-4.946 4.5-.383 0-3.465-2.379-6.849-5.286-6.768-5.814-15.958-12.127-22.154-15.218-2.2-1.098-4.15-2.334-4.333-2.746-.184-.413-.859-.753-1.5-.756-.642-.004-2.292-.587-3.667-1.297-2.379-1.229-10.419-4.148-18-6.535-11.962-3.768-37.161-5.005-53-2.603M31.181 31.695c-1.826 1.925-3.057 3.763-2.735 4.084.654.654 7.554-5.717 7.554-6.975 0-1.509-1.498-.61-4.819 2.891M181.062 81.83l-45.933 45.83 43.982 43.92 43.981 43.92-.189 8.274c-.104 4.55.1 8.562.454 8.916s.643-3.851.643-9.343c0-9.853.044-10.04 3.319-13.917 5.292-6.268 9.793-13.224 15.806-24.43 2.253-4.199 5.317-12.284 8.869-23.404 2.048-6.413 3.967-22.421 3.967-33.096s-1.919-26.683-3.967-33.096c-3.712-11.621-6.745-19.544-9.083-23.727-.561-1.003-1.989-3.703-3.174-6-2.592-5.026-7.739-12.454-13.146-18.97l-3.977-4.794 2.693-2.497c2.6-2.411 3.245-3.416 2.191-3.416-.276 0-21.172 20.623-46.436 45.83M112 57c0 17.333.074 18 2 18 1.872 0 2-.667 2-10.441 0-10.637 1.152-14.005 3.033-8.869C124.5 70.613 126.572 75 128.154 75c.941 0 2.02-1.013 2.398-2.25.832-2.729 4.152-10.592 5.483-12.986.531-.955.965-2.418.965-3.25 0-.833.45-1.514 1-1.514.6 0 1 4 1 10v10h7.852l-.074-18-.074-18h-3.773c-3.375 0-3.841.315-4.428 2.989-.361 1.643-1.072 3.245-1.58 3.559-.508.313-.923 1.243-.923 2.066C136 49.98 130.132 63 129.066 63c-.328 0-1.427-2.362-2.441-5.25-1.854-5.276-4.776-12.315-6.849-16.5-.822-1.66-1.987-2.25-4.445-2.25H112zm-81.994-9.146c-1.921 2.555-3.745 4.871-4.052 5.146-.308.275-1.637 2.3-2.954 4.5s-2.652 4.225-2.967 4.5c-1.686 1.472-10.008 19.536-11.978 26-1.258 4.125-2.696 8.559-3.196 9.853-.501 1.294-1.597 8.596-2.437 16.227-1.364 12.389-1.366 15.411-.024 28.24.826 7.902 1.923 15.45 2.437 16.774.513 1.323 1.962 5.781 3.22 9.906 1.97 6.464 10.292 24.528 11.978 26 .315.275 1.665 2.3 3 4.5 3.023 4.98 4.277 6.58 10.211 13.026 2.608 2.835 4.464 5.433 4.123 5.774s-.953 2.439-1.36 4.66c-.563 3.079-.419 4.04.602 4.04.933 0 1.172-.846.786-2.777-.513-2.565 2.78-6.104 43.025-46.235 23.969-23.901 43.58-43.9 43.58-44.442 0-1.086-86.588-88.165-89-89.505-1.109-.616-2.411.378-4.994 3.813m3.437 65.433c-.271.707-.369 8.92-.218 18.25.27 16.655.315 16.969 2.491 17.278 2.155.307 2.223.023 2.5-10.5.156-5.948.679-10.726 1.162-10.617s2.748 4.801 5.032 10.427c2.285 5.627 4.641 10.392 5.235 10.59s1.664-1.119 2.376-2.927c2.467-6.265 5.054-12.296 6.014-14.024.531-.955.965-2.418.965-3.25 0-.833.435-1.514.966-1.514.544 0 1.09 4.697 1.25 10.75l.284 10.75 3.25.313 3.25.314V112h-3.378c-3.233 0-3.476.268-5.663 6.25-1.257 3.438-2.584 6.7-2.95 7.25-.365.55-1.454 3.137-2.42 5.75-1.6 4.331-3.589 6.355-3.589 3.651 0-.604-.642-2.517-1.428-4.25-1.925-4.249-4.973-11.432-6.535-15.401-1.095-2.781-1.772-3.25-4.69-3.25-1.875 0-3.632.579-3.904 1.287M194 112.921c0 .506 2.25 4.548 5 8.982 5.003 8.066 5.654 9.64 4.25 10.264-1.117.496-11.25 15.113-11.25 16.228 0 .333.8.605 1.778.605 2.005 0 3.23-1.302 8.222-8.736 1.925-2.867 3.801-5.224 4.168-5.238.368-.014 1.699 1.662 2.958 3.724s2.645 3.9 3.081 4.083.793.901.793 1.595c0 2.068 3.466 4.572 6.329 4.572q4.819 0 .671-5.273c-1.1-1.398-2-3.034-2-3.635 0-.6-.45-1.092-1-1.092s-1-.434-1-.965-1.349-3.093-2.998-5.693-2.642-4.978-2.206-5.284c.922-.65 10.204-13.936 10.204-14.606 0-.249-.879-.452-1.954-.452-1.814 0-9.046 8.109-9.046 10.144 0 2.471-3.152.267-5.568-3.894-1.518-2.612-3.248-5.081-3.845-5.485-1.561-1.055-6.587-.936-6.587.156M83.5 179.314c-23.1 23.212-42.675 43.06-43.5 44.106-1.419 1.798-1.382 1.828.669.551 1.964-1.224 2.536-1.027 6.077 2.089 2.149 1.892 4.938 4.115 6.197 4.94a94 94 0 0 1 4.58 3.25c1.261.962 2.784 1.75 3.385 1.75.6 0 1.092.365 1.092.811 0 .687 3.209 2.425 17.225 9.325 1.516.747 7.254 2.695 17.35 5.893C101.272 253.516 121.551 256 129 256c7.787 0 27.797-2.507 32.925-4.125 10.209-3.221 13.386-4.484 22.575-8.97 5.5-2.686 13.15-7.154 17-9.929s8.235-5.818 9.744-6.761 2.746-2.153 2.75-2.689c.01-1.65-85.367-86.53-86.979-86.471-.833.03-20.415 19.047-43.515 42.259m44.25 12.133c-2.716 3.404-2.75 3.625-2.75 18V224h7v-18c0-9.9-.338-18-.75-18s-1.988 1.551-3.5 3.447"/><path fill="#1976D2" fill-opacity=".696" fill-rule="evenodd" d="M108.513 2.743c-2.193.223-4.443.772-5 1.22s-3.375 1.131-6.262 1.519-5.477 1.074-5.755 1.525c-.279.45-2.304 1.123-4.501 1.494S83 9.55 83 10.008s-1.356 1.131-3.014 1.495C74.047 12.808 58.78 21.862 49 29.88c-3.025 2.48-5.627 4.586-5.783 4.681-.458.277 88.885 89.439 89.621 89.439 1.335 0 85.4-84.783 85.036-85.762-.551-1.482-11.404-10.294-18.896-15.343-5.852-3.943-19.233-11.022-24.478-12.949-10.516-3.863-14.838-5.016-26-6.939-4.978-.857-32.392-1.039-39.987-.264m2.714 54.507.273 18.25h2.5c2.476 0 2.505-.1 3-10.5l.5-10.5 1.75 3.651c.963 2.008 1.75 4.109 1.75 4.669s.652 2.292 1.449 3.849c1.648 3.22 2.838 6.363 2.965 7.831.047.55.986 1 2.086 1 1.347 0 2.653-1.333 4-4.083 2.75-5.614 4.268-9.422 5.052-12.667 1.367-5.655 2.448-2.427 2.448 7.307v10.058l4.25-.308 4.25-.307.273-18.25.272-18.25h-4.408c-4.031 0-4.547.291-6.023 3.401-.888 1.871-1.614 4.121-1.614 5 0 .88-.45 1.599-1 1.599s-1 .671-1 1.49c0 2.044-4.201 11.51-5.108 11.51-.403 0-1.045-1.462-1.426-3.25s-1.48-5.05-2.443-7.25-2.574-5.913-3.579-8.25c-1.749-4.064-2.018-4.25-6.159-4.25h-4.33zm67.435 27.588-42.829 42.837 43.201 43.163C202.795 194.577 222.381 214 222.56 214c.27 0 9.655-11.973 12.193-15.555 2.003-2.827 5.778-10.073 12.215-23.445.397-.825 1.711-4.875 2.919-9 1.209-4.125 2.741-9.3 3.405-11.5.786-2.603 1.208-11.685 1.208-26s-.422-23.397-1.208-26c-.664-2.2-2.196-7.375-3.405-11.5s-2.522-8.175-2.919-9c-7.012-14.566-10.513-21.214-12.468-23.673-.55-.692-3.475-4.629-6.5-8.749s-5.727-7.511-6.004-7.535c-.278-.024-19.778 19.234-43.334 42.795M29.5 49.307C15.41 67.602 6.471 88.42 3.011 111c-1.086 7.091-1.086 27.909 0 35 2.791 18.21 9.739 36.729 19.513 52.007 2.799 4.375 13.915 17.764 15.957 19.22.578.412 19.317-17.56 43.269-41.496L124 133.509 79.254 88.754c-24.61-24.615-44.973-44.728-45.25-44.697s-2.304 2.394-4.504 5.25M33 130v19h6l.023-10.75c.021-10.008.12-10.543 1.431-7.75 3.471 7.389 5.548 12.491 5.578 13.695.047 1.934 2.486 4.806 4.078 4.801.765-.002 2.243-2.139 3.287-4.75 1.917-4.798 4.56-11.078 6.206-14.746.614-1.37.986 1.385 1.181 8.75l.284 10.75h7.976l-.272-18.75-.272-18.75-3.75-.31c-2.864-.237-3.75.058-3.75 1.25 0 .858-.414 1.56-.921 1.56-.506 0-1.238 1.448-1.627 3.217-.388 1.77-1.083 3.907-1.544 4.75-2.104 3.85-4.908 11.088-4.908 12.669 0 1.573-.146 1.554-1.468-.195-.808-1.067-1.483-2.528-1.5-3.246-.018-.718-.957-3.418-2.087-6-2.102-4.805-2.868-6.631-4.799-11.445-.947-2.361-1.672-2.75-5.125-2.75H33zm159.708-17.25c.356.963.941 1.975 1.302 2.25.977.744 8.99 14.487 8.99 15.418 0 .442-2.176 3.794-4.836 7.451-2.659 3.657-5.375 7.657-6.035 8.89-1.113 2.079-.992 2.241 1.67 2.241 2.413 0 3.571-1.034 7.277-6.5 2.425-3.575 4.669-6.5 4.988-6.5.766 0 5.936 7.918 5.936 9.09 0 .5.45.91 1 .91s1 .675 1 1.5c0 1.111 1.167 1.5 4.5 1.5 2.475 0 4.5-.211 4.5-.47 0-.258-.858-1.996-1.906-3.863l-3.25-5.78c-.739-1.313-1.593-2.612-1.897-2.887s-1.567-2.17-2.808-4.212l-2.255-3.712 2.308-3.288c1.269-1.808 2.533-3.513 2.808-3.788 1.196-1.196 4.691-6.651 5.286-8.25.506-1.359.119-1.75-1.733-1.75-2.296 0-8.553 6.417-8.553 8.771 0 .541-.589 1.473-1.309 2.07-1.48 1.229-2.903-.142-6.116-5.895-2.456-4.398-3.269-4.912-7.794-4.931-3.124-.013-3.615.265-3.073 1.735m-108.439 66.5L42.046 221.5l6.227 5.041c10.838 8.774 25.64 17.622 31.713 18.956 1.658.364 3.014 1.037 3.014 1.495s1.798 1.136 3.995 1.507 4.222 1.044 4.501 1.494c.278.451 2.868 1.137 5.755 1.525s5.834 1.179 6.549 1.758c1.824 1.476 35.229 2.163 43.2.888 12.135-1.941 16.502-3.07 27.5-7.11 9.09-3.34 23.701-11.878 34.725-20.292l4.563-3.483-43.148-43.139C146.908 156.413 127.266 137 126.991 137s-19.5 19.012-42.722 42.25m43.801 11-4.081 4.25.256 15 .255 15 4.25.307 4.25.308v-19.558c0-10.756-.191-19.557-.425-19.557s-2.261 1.912-4.505 4.25"/><path fill="#1976D2" fill-opacity=".396" fill-rule="evenodd" d="M112.61 2.822c-.311.503-3.715 1.226-7.565 1.605-3.849.379-7.229 1.061-7.51 1.516-.281.454-2.53 1.129-4.999 1.499s-4.751 1.098-5.072 1.616-1.255.942-2.078.942C80.167 10 57.451 22.964 47 31.907l-3.5 2.995 15.488 15.549C67.506 59.003 74.763 66 75.113 66c.351 0-4.758-5.491-11.353-12.203L51.77 41.594l2.964-2.547c5.37-4.615 6.693-5.552 14.266-10.108C76.686 24.315 87.857 19 89.889 19c.626 0 1.92-.395 2.875-.877C98.244 15.354 117.145 12 127.265 12c9.01 0 21.901 1.662 31.735 4.091 7.545 1.864 30.756 12.198 35 15.583 7.602 6.064 14.624 11.964 15.184 12.76.376.534.424 1.442.106 2.018-.319.577 1.511-.958 4.065-3.41l4.644-4.457-6.25-5.745c-3.437-3.16-6.634-5.767-7.105-5.793s-2.605-1.432-4.742-3.124c-4.782-3.788-21.747-12.517-26.16-13.461-1.783-.381-3.692-1.039-4.242-1.462s-2.575-1.098-4.5-1.5-3.95-1.082-4.5-1.511c-3.2-2.495-46.534-5.361-47.89-3.167m1.14 34.884c1.237.238 3.263.238 4.5 0 1.237-.239.225-.434-2.25-.434s-3.487.195-2.25.434m27 0c1.238.238 3.262.238 4.5 0 1.238-.239.225-.434-2.25-.434s-3.488.195-2.25.434m54.75 31.038c-23.875 24.137-27.341 27.729-26.056 27.006.245-.138 10.63-10.375 23.078-22.75l22.634-22.5 3.484 4c4.574 5.252 8.65 11.544 7.939 12.255-.312.311.261 1.145 1.271 1.853 1.011.708 2.655 3.448 3.652 6.09s2.133 5.027 2.522 5.302c1.304.923 2.156 5 1.043 5-.587 0-1.067-.643-1.067-1.429 0-.785-.588-2.023-1.306-2.75s-1.604-2.108-1.969-3.071c-.364-.963-1.137-1.75-1.717-1.75s-.311 1.135.601 2.526c1.495 2.282 1.505 2.692.108 4.25-.851.948-1.994 3.299-2.542 5.224s-1.035 2.713-1.085 1.75c-.16-3.116-1.885-1.858-3.428 2.5-.891 2.518-1.549 3.435-1.614 2.25-.073-1.323-.91-.368-2.474 2.824-1.478 3.017-2.639 4.38-3.097 3.639-.403-.653-.295-1.474.241-1.825s1.247-1.988 1.58-3.638c.448-2.222.034-1.773-1.596 1.73-2.266 4.866-3.702 6.058-3.702 3.07 0-1.229-.302-1.398-1.093-.607s-.79 1.657 0 3.134c1.498 2.797 1.394 3.173-.876 3.173-1.422 0-1.812-.485-1.405-1.75.459-1.427.373-1.482-.466-.298-.565.799-.775 1.862-.466 2.362s-.058 1.296-.816 1.767c-1.149.716-1.159 1.211-.059 2.986 1.791 2.888 1 3.345-1.6.922-1.174-1.094-2.578-1.989-3.118-1.989-1.71 0-2.32-2.031-1.065-3.544.974-1.173.894-1.456-.414-1.456-.955 0-1.622.822-1.622 2 0 1.352-.667 2-2.059 2-1.243 0-1.79-.436-1.379-1.1.385-.624-.346-.516-1.691.25-2.286 1.301-2.211 1.361 2.068 1.667 4.685.334 6.195 1.528 8.556 6.763 2.407 5.334 3.837 5.805 6.582 2.167 1.333-1.766 3.204-4.457 4.158-5.979 1.696-2.705 5.976-3.854 7.168-1.924.619 1.001-9.237 16.156-10.507 16.156-.481 0 .829 2.813 2.912 6.25a769 769 0 0 1 6.531 11l2.745 4.75H219.2c-4.557 0-5.012-.235-6.77-3.5-1.037-1.925-2.123-3.5-2.413-3.5-.291 0-1.126-1.35-1.857-3-1.368-3.092-3.16-4.03-3.16-1.655 0 .74-.9 2.16-2 3.155s-2 2.367-2 3.048-.675 1.497-1.5 1.814-1.5 1.264-1.5 2.107c0 1.12-1.075 1.531-4 1.531-4.369 0-4.608-.194-2.75-2.221.688-.75 1.7-2.095 2.25-2.989s2.792-4.25 4.983-7.458c3.668-5.37 4.418-8.049 2.614-9.332-.386-.275-1.769-2.3-3.073-4.5-3.128-5.276-2.989-5.159-4.109-3.471-.717 1.082-.824.809-.401-1.029.344-1.496-.033-3.303-.938-4.5-1.181-1.562-1.519-1.661-1.544-.45-.018.853.508 2.09 1.168 2.75.898.898.905 1.2.031 1.2-.642 0-.917.654-.61 1.454.306.799-.206 2.487-1.14 3.75l-1.697 2.296.666-2.905c.442-1.926.225-3.185-.642-3.735-2.061-1.307-2.808-1.013-2.808 1.105 0 1.08-.9 2.446-2 3.035s-2 .774-2 .413-.675-.098-1.5.587-1.514 2.652-1.53 4.372c-.048 4.898-1.61 1.119-2.428-5.872-.493-4.212-2.007-8.468-5.079-14.281-2.407-4.555-4.113-8.967-3.792-9.805s-6.584 5.589-15.345 14.282L136.397 127.5l42.778 42.975 42.779 42.976 4.023-3.928c2.213-2.161 4.023-4.335 4.023-4.832s1.362-2.623 3.027-4.726c3.046-3.845 12.968-22.528 12.979-24.439.004-.565.662-2.283 1.463-3.818s1.757-4.461 2.124-6.5c.367-2.04 1.059-4.204 1.537-4.81.479-.607 1.16-3.883 1.516-7.281.355-3.399 1.03-6.417 1.5-6.707 1.116-.69 1.116-35.13 0-35.82-.47-.29-1.145-3.308-1.5-6.707-.356-3.398-1.037-6.674-1.516-7.281-.478-.606-1.17-2.77-1.537-4.81s-1.323-4.964-2.124-6.5-1.459-3.253-1.463-3.818c-.011-1.911-9.933-20.594-12.979-24.439-1.665-2.103-3.045-4.208-3.067-4.679s-1.934-2.89-4.25-5.377l-4.21-4.521zM31.323 47.384A114 114 0 0 0 28 52a112 112 0 0 1-3.25 4.523c-.962 1.261-1.75 2.784-1.75 3.385 0 .6-.385 1.092-.855 1.092-.984 0-9.166 15.867-9.153 17.75.004.688-.402 1.25-.904 1.25s-1.216 1.798-1.587 3.995S9.454 88.219 9 88.5s-1.141 2.421-1.526 4.755-1.099 4.741-1.587 5.348c-.488.606-1.18 4.559-1.537 8.783-.357 4.225-1.032 7.917-1.5 8.206-1.11.687-1.11 25.129 0 25.816.468.289 1.143 3.981 1.5 8.206s1.049 8.177 1.537 8.783c.488.607 1.202 3.013 1.587 5.348S8.546 168.219 9 168.5s1.13 2.308 1.501 4.505S11.586 177 12.088 177s.908.563.904 1.25c-.013 1.883 8.169 17.75 9.153 17.75.47 0 .855.469.855 1.042C23 199.254 37.172 217 38.938 217c.576 0 8.335-7.692 34.392-34.093 3.206-3.249 6.244-5.907 6.75-5.907s.92-.45.92-1c0-1.903-1.933-.984-5.934 2.822-2.21 2.102-4.22 3.441-4.467 2.975s-.349-.322-.227.32c.308 1.614-16.066 17.896-17.617 17.518-.69-.169-.918-.118-.505.112 1.283.718.834 1.719-1.395 3.111-1.916 1.197-2.073 1.153-1.473-.41.438-1.143-.089-2.458-1.522-3.793-2.447-2.28-1.127-3.404 2.019-1.72 2.661 1.424 3.801 1.342 4.439-.322.381-.993-.05-1.234-1.519-.85-1.295.338-2.393-.072-2.975-1.113-.508-.908-1.576-1.65-2.374-1.65-.797 0-1.45-.502-1.45-1.117 0-.614.851-.894 1.892-.622 1.554.407 2.025-.24 2.643-3.633.516-2.832.9-3.5 1.224-2.128.432 1.829 1.951 3.447 3.272 3.485.292.008 1.04-1.335 1.663-2.985 1.111-2.944 3.586-3.974 4.806-2 .833 1.347 3.5 1.276 3.5-.094 0-.601-.925-1.335-2.057-1.631-1.285-.336-1.847-1.082-1.5-1.988.307-.798.557-2.314.557-3.369S62.576 175 63.279 175c.704 0 1.911-.876 2.682-1.946.772-1.071 1.693-1.768 2.046-1.549.354.218 2.724-1.493 5.266-3.804 2.543-2.311 5.639-4.325 6.881-4.476s2.567-.774 2.945-1.385c.41-.663 1.771-.839 3.377-.435 3.332.836 2.486-1.089-1.073-2.442-1.322-.502-2.396-1.487-2.388-2.188.013-1.026.175-1.024.83.009.448.706 1.517 1.014 2.375.685.918-.352 2.53.368 3.92 1.752l2.36 2.351-5.677 5.953c-3.123 3.275-5.478 6.153-5.234 6.397s6.684-5.768 14.312-13.359 14.258-14.101 14.734-14.465 3.489-3.397 6.695-6.74l5.83-6.078-44.144-44.14C54.736 64.863 34.482 45 34.008 45s-1.683 1.073-2.685 2.384m102.756.199c.048 1.165.285 1.402.604.605.289-.722.253-1.585-.079-1.917s-.568.258-.525 1.312M37.5 56.535c-1.65 2.453-3.337 4.462-3.75 4.463s-.75.622-.75 1.38-.695 1.954-1.546 2.66c-.85.705-1.276 1.984-.947 2.842.329.857.282 1.242-.105.855-.839-.839-3.325 2.194-3.37 4.111-.018.74-.981 2.678-2.141 4.307s-1.801 3.27-1.425 3.646 1.123-.099 1.659-1.057C26.321 77.605 28 77.463 28 79.5c0 .825.45 1.5 1 1.5s1-.9 1-2-.45-2-1-2-1-.675-1-1.5.45-1.5 1-1.5 1 .675 1 1.5.478 1.5 1.063 1.5c.584 0 .983.787.885 1.75-.304 2.982.045 3.81.981 2.331.638-1.008 1.099-.077 1.593 3.217.504 3.359 1.236 4.808 2.659 5.259 1.161.369 1.743 1.2 1.423 2.033-.353.919.144 1.41 1.427 1.41 1.427 0 1.969.68 1.969 2.469 0 1.783.416 2.308 1.5 1.893.825-.317 1.5-.078 1.5.531S45.675 99 46.5 99s1.5.477 1.5 1.059.399.813.886.511c.488-.301 1.129.381 1.426 1.515.297 1.135 1.473 2.308 2.614 2.606a2.82 2.82 0 0 1 2.137 2.676c.059 1.974.145 1.946 1.153-.367 1.004-2.305 1.124-2.344 1.54-.5.248 1.1 1.079 2.711 1.848 3.579 1.209 1.367 1.06 2.244-1.1 6.5-1.373 2.707-2.774 6.383-3.112 8.171s-.97 3.25-1.404 3.25-1.206 1.688-1.716 3.75l-.927 3.75-1.907-5.25c-1.049-2.888-2.252-5.25-2.673-5.25s-.765-.7-.765-1.555-.834-3.443-1.853-5.75-2.12-4.958-2.448-5.892c-.429-1.224-1.568-1.634-4.091-1.472-1.922.123-3.763.491-4.09.818-.473.473-.996 31.618-.614 36.601.054.701 1.414 1.25 3.096 1.25h3l.079-10.25c.043-5.637.323-9.575.621-8.75.559 1.545 1.643 4.074 5.228 12.195 1.139 2.582 2.072 5.17 2.072 5.75S48.074 149 49.386 149c1.731 0 2.829-.934 4-3.401.888-1.871 1.614-4.121 1.614-5 0-.88.414-1.599.921-1.599.506 0 1.238-1.463 1.627-3.25s1.213-3.979 1.83-4.869c.854-1.232 1.04.739.778 8.25L59.813 149H70l.086-19.25c.05-11.15.422-18.198.885-16.75 2.022 6.331 7.63 13.501 8.446 10.8 3.067-10.143 4.184-13.11 6.69-17.773l2.942-5.473-24.274-24.24L40.5 52.074zm88.579-2.952c.048 1.165.285 1.402.604.605.289-.722.253-1.585-.079-1.917s-.568.258-.525 1.312m75.38-.516c-.363.586-.445 1.281-.183 1.543s.743-.218 1.069-1.067c.676-1.762.1-2.072-.886-.476m-84.396 12.11c-.055 9.272-.293 10.744-1.813 11.192-1.363.402-1.308.471.25.314 1.788-.182 2.061-1.156 2.579-9.193.318-4.945.234-9.89-.187-10.99-.436-1.14-.792 2.593-.829 8.677m19.623-5.427c-.238.413-.096 2.775.315 5.25l.749 4.5.125-5.25c.118-4.969-.208-6.203-1.189-4.5m-15.607 6.833c.048 1.165.285 1.402.604.605.289-.722.253-1.585-.079-1.917s-.568.258-.525 1.312M36 69c0 .55.45 1 1 1s1-.45 1-1-.45-1-1-1-1 .45-1 1m44 2.293a48 48 0 0 1 2.872 2.753c1.175 1.244 1.215 1.147.278-.678-.602-1.173-1.894-2.412-2.872-2.753-1.548-.54-1.584-.452-.278.678m57.079.29c.048 1.165.285 1.402.604.605.289-.722.253-1.585-.079-1.917s-.568.258-.525 1.312M31 73c0 .55.477 1 1.059 1s.781-.45.441-1-.816-1-1.059-1-.441.45-.441 1m98.211 2.601c-.71.769-.849 1.399-.309 1.399 1.038 0 2.541-1.902 1.948-2.466-.192-.183-.93.297-1.639 1.067m-20.728 24.207 23.982 24.173 6.345-6.241c10.668-10.491 22.676-22.824 22.944-23.565.313-.861-8.911-7.043-13.912-9.326-13.439-6.132-33.307-4.613-45.143 3.451l-2.801 1.909-5.748-5.855c-3.162-3.22-6.626-6.499-7.699-7.287-1.073-.787 8.841 9.446 22.032 22.741m32.267-23.102c1.238.238 3.262.238 4.5 0 1.238-.239.225-.434-2.25-.434s-3.488.195-2.25.434M236 87.441c0 .793.408 1.693.907 2.001.498.309.671-.34.383-1.441-.611-2.335-1.29-2.63-1.29-.56m-28.921 13.142c.048 1.165.285 1.402.604.605.289-.722.253-1.585-.079-1.917s-.568.258-.525 1.312m6.936 3.198c-.008.705.66 1.541 1.485 1.857s1.5 1.026 1.5 1.576-.652.75-1.449.444c-.983-.377-1.265-.076-.877.936.493 1.285.839 1.251 2.487-.24 1.824-1.65 1.83-1.778.127-2.708-.984-.536-2.119-1.464-2.523-2.061-.496-.732-.739-.669-.75.196M203 106.5c-1.02 1.229-.951 1.5.378 1.5.892 0 1.622-.675 1.622-1.5s-.17-1.5-.378-1.5c-.207 0-.937.675-1.622 1.5m-142.333 1.167c-1.353 1.352.677 2.327 4.642 2.231 3.995-.098 4.046-.137 1.104-.841-1.698-.406-3.548-1.022-4.111-1.37s-1.299-.357-1.635-.02m25.71 70.196c-43.607 43.593-44.769 44.801-42.178 43.857q1.7-.618 1.209.66c-.27.703.703 2.142 2.161 3.199s3.165 2.386 3.792 2.955C57.532 234.135 81.236 247 85.386 247c.823 0 1.758.424 2.078.942.321.518 2.603 1.245 5.072 1.616 2.469.37 4.718 1.045 4.999 1.499s3.661 1.137 7.51 1.516c3.85.379 7.241 1.081 7.536 1.558.695 1.125 31.134 1.14 31.828.016.291-.47 3.771-1.155 7.735-1.524 3.964-.368 7.691-1.057 8.282-1.531s2.649-1.19 4.574-1.592 3.95-1.077 4.5-1.5 2.409-1.07 4.13-1.438c4.313-.921 21.677-9.845 26.335-13.535 2.103-1.665 4.283-3.027 4.846-3.027s1.172-.338 1.356-.75c.183-.412 1.792-1.956 3.575-3.429l3.243-2.679-42.513-42.571C147.089 157.157 127.575 138 127.106 138s-18.797 17.939-40.729 39.863M84.5 154c-.34.55.11 1 1 1s1.34-.45 1-1-.79-1-1-1-.66.45-1 1m86.25.662c.688.278 1.813.278 2.5 0 .688-.277.125-.504-1.25-.504s-1.937.227-1.25.504m-1.747 2.588c.006 1.996 16.677 18.076 17.448 16.829 1.097-1.776-.382-5.043-2.002-4.421-.797.306-1.449.058-1.449-.551s-.927-1.107-2.059-1.107-1.801-.418-1.485-.928-.34-1.218-1.456-1.572-1.795-1.023-1.508-1.487c.286-.463-.045-1.049-.736-1.303-1.005-.368-1.006-.725-.006-1.785.903-.957 1.25-.992 1.25-.125 0 .66.454 1.2 1.008 1.2.605 0 .519-.785-.215-1.96-1.082-1.732-1.412-1.79-2.837-.5-2.021 1.829-2.6 1.831-3.298.011-.389-1.013-.045-1.289 1.143-.918 1.382.431 1.336.235-.242-1.051-2.338-1.905-3.56-2.019-3.556-.332M186 164c0 .55.45 1 1 1s1-.45 1-1-.45-1-1-1-1 .45-1 1m-105 2c0 .55.477 1 1.059 1s.781-.45.441-1-.816-1-1.059-1-.441.45-.441 1m100-.107c0 .491.675 1.152 1.5 1.469.914.35 1.5.001 1.5-.893 0-.808-.675-1.469-1.5-1.469s-1.5.402-1.5.893m-98.25 2.499c-1.827 1.387-2.291 2.608-.991 2.608.418 0 1.322-.9 2.009-2 1.455-2.331 1.341-2.399-1.018-.608m8.829 5.529c-3.78 3.809-6.522 7.361-6.149 7.966.395.639.129.881-.643.585-1.839-.706-34.004 31.83-33.258 33.641.503 1.222 5.802 5.502 10.383 8.387.873.55 1.813 1.248 2.088 1.55 1.429 1.572 12.855 7.748 21 11.35 10.711 4.738 30.751 8.6 44.62 8.6 19.34 0 43.064-6.798 60.38-17.302 1.925-1.168 3.982-2.59 4.572-3.161.59-.57 2.67-2.132 4.624-3.47 7-4.795 7.834-3.455-18.648-29.958l-24.239-24.258-3.696 2.508c-6.457 4.381-13.175 6.085-24.113 6.114-10.647.029-16.783-1.624-25.932-6.986l-4.167-2.442zm97.747-.722c.388 1.154.139 1.533-.776 1.182-3.337-1.281-2.188 1.907 2.098 5.821 2.588 2.364 7.439 7.056 10.779 10.426 5.187 5.235 6.401 6.005 8.323 5.283 1.238-.466 2.25-1.072 2.25-1.347 0-.276-.675-.242-1.5.074-.825.317-1.5.078-1.5-.531s.525-1.107 1.167-1.107c.641 0 .83-.337.418-.748-.412-.412-1.387.124-2.167 1.191-1.136 1.553-1.418 1.626-1.418.365 0-.866-.902-1.811-2.005-2.099-1.395-.365-1.927-1.236-1.75-2.867.198-1.818-.192-2.293-1.745-2.121-1.1.121-1.437-.029-.75-.333 1.882-.835 1.505-2.172-.822-2.911-1.246-.395-1.857-1.22-1.532-2.067.298-.776.178-1.41-.267-1.41-.444 0-1.321-1.125-1.947-2.5s-1.625-2.5-2.22-2.5c-.594 0-.804.446-.467.992s.153 1.783-.41 2.75c-.822 1.411-1.054 1.462-1.173.258-.082-.825-.087-1.862-.012-2.305s-.602-1.793-1.505-3c-1.071-1.432-1.442-1.605-1.069-.496m-116.115 3.402c-.71.769-.849 1.399-.309 1.399 1.038 0 2.541-1.902 1.948-2.466-.192-.183-.93.297-1.639 1.067m124.868-.018c.048 1.165.285 1.402.604.605.289-.722.253-1.585-.079-1.917s-.568.258-.525 1.312m-140 2c.048 1.165.285 1.402.604.605.289-.722.253-1.585-.079-1.917s-.568.258-.525 1.312M66 179c0 .55.45 1 1 1s1-.45 1-1-.45-1-1-1-1 .45-1 1m129 2.5c0 .825.177 1.5.393 1.5s.652-.675.969-1.5.139-1.5-.393-1.5c-.533 0-.969.675-.969 1.5m-141.554 2.587c-.369.598-.171 1.588.441 2.2.817.817 1.113.528 1.113-1.087q0-3.623-1.554-1.113m150.554.854c0 .518.445 1.216.989 1.552.566.35.734-.051.393-.941-.665-1.732-1.382-2.049-1.382-.611m8-.563c0 .207.685.946 1.523 1.641 1.273 1.057 1.42.995.893-.378-.538-1.401-2.416-2.384-2.416-1.263m-154 1.477c0 .459.9 1.65 2 2.645s2 1.39 2 .877-.9-1.703-2-2.645-2-1.337-2-.877m71.5.919c-.55.409-2.121 2.089-3.491 3.735-2.234 2.684-2.106 2.637 1.25-.455 3.387-3.12 4.219-4.083 3.491-4.039-.137.009-.7.35-1.25.759m3.5 18.785c0 13.407.33 19.355 1.05 18.91 1.275-.788 1.074-38.469-.205-38.469-.465 0-.845 8.802-.845 19.559m76.571-17.988c-1.006 1.007-1.571 1.143-1.571.378 0-.906-.359-.896-1.489.042-.819.68-1.213 1.683-.875 2.229.386.624.846.638 1.239.038.344-.525 1.541-.88 2.661-.789 1.361.11 2.035-.437 2.035-1.652 0-2.206-.034-2.211-2-.246M57.5 191c.34.55.816 1 1.059 1s.441-.45.441-1-.477-1-1.059-1-.781.45-.441 1m163.115 6.561c-.412 1.074-1.237 1.416-2.373.984-1.402-.534-1.497-.416-.485.603 1.014 1.021 1.583.94 2.941-.417.925-.926 1.428-1.939 1.116-2.25-.312-.312-.851.174-1.199 1.08m-11.615.23c0 .473 1.068 1.864 2.373 3.09l2.373 2.229.482-2.525c.266-1.388.107-2.292-.352-2.008s-1.744.029-2.855-.566c-1.112-.595-2.021-.694-2.021-.22m-169.393 2.791c-.904 2.355-.706 3.123.367 1.426.767-1.214 1.182-1.252 2.226-.208s1.008 1.453-.195 2.197c-1.248.771-1.127 1.241.775 3.013 2.067 1.926 2.386 1.967 3.856.497.881-.881 1.299-1.905.929-2.276-.371-.37-1.075-.024-1.565.769s-1.209 1.124-1.598.735.522-1.674 2.025-2.856c2.451-1.928 2.575-2.306 1.203-3.678-1.259-1.258-1.804-1.301-3.08-.243-1.049.871-1.55.924-1.55.164 0-1.706-2.702-1.34-3.393.46m176.643 1.08c-1.726.697-1.577 3.338.188 3.338.821 0 1.373-.857 1.287-2-.083-1.1-.167-1.964-.188-1.921s-.599.306-1.287.583"/></svg>